# xmcd
#
# Track frame offsets: 
#        150
#        15430
#        27288
#        41952
#        57692
#        70497
#        83631
#        94285
#        104901
#        114639
#        126220
#        142386
#
# Disc length: 2062 seconds
#
# Revision: 0
# Processed by: cddbd v1.5.2PL0 Copyright (c) Steve Scherf et al.
# Submitted via: ExactAudioCopy v1.0b1
#
DISCID=ba080c0c
DTITLE=The Country Gentlemen - The Traveler and Other Favorites
DYEAR=1966
DGENRE=Bluegrass
TTITLE0=The Border Incident
TTITLE1=Johnny Reb
TTITLE2=The Traveler
TTITLE3=Baby Blue
TTITLE4=Exodus
TTITLE5=Working On The Road
TTITLE6=Many A Mile
TTITLE7=Matterhorn
TTITLE8=Buffalo Girls
TTITLE9=Amelia Earhart
TTITLE10=Dark As A Dungeon
TTITLE11=A Beautiful Life
EXTD=
EXTT0=
EXTT1=
EXTT2=
EXTT3=
EXTT4=
EXTT5=
EXTT6=
EXTT7=
EXTT8=
EXTT9=
EXTT10=
EXTT11=
PLAYORDER=
